<svg width="81" height="42" viewBox="0 0 81 42" fill="none" xmlns="http://www.w3.org/2000/svg">
<path fill-rule="evenodd" clip-rule="evenodd" d="M5.43313 0C2.4325 0 0 2.43249 0 5.43313V28.7956C0 31.7962 2.4325 34.2287 5.43313 34.2287H28.6145C31.6151 34.2287 34.0476 31.7962 34.0476 28.7956V5.43313C34.0476 2.4325 31.6151 0 28.6145 0H5.43313ZM9.32991 7.35017H17.8355C23.0848 7.35017 26.3691 10.0731 26.3691 14.4803C26.3691 18.8594 23.0848 21.5823 17.8355 21.5823H13.8774V27H9.32991V7.35017ZM13.8774 17.8769H17.5828C20.3619 17.8769 21.7654 16.6137 21.7654 14.4803C21.7654 12.3188 20.3619 11.0556 17.5828 11.0556H13.8774V17.8769Z" fill="#631DC0"/>
<path d="M38.96 21.3666C38.9235 21.6133 38.8778 21.8463 38.823 22.0656C38.7682 22.2758 38.7133 22.4631 38.6585 22.6276C38.6128 22.7829 38.5717 22.9109 38.5351 23.0114C38.4986 23.1119 38.4757 23.1667 38.4666 23.1759C38.3752 23.386 38.2153 23.4911 37.9869 23.4911C37.8589 23.4911 37.7402 23.4454 37.6305 23.354C37.5209 23.2535 37.466 23.1302 37.466 22.984C37.466 22.9291 37.4752 22.888 37.4934 22.8606C37.5117 22.8332 37.5391 22.7784 37.5757 22.6961C37.6122 22.6139 37.6579 22.4768 37.7127 22.2849C37.7676 22.093 37.8361 21.796 37.9183 21.394C37.763 21.394 37.6031 21.3894 37.4386 21.3803C37.2741 21.3711 37.1234 21.3392 36.9863 21.2843C36.8401 21.2295 36.7213 21.1427 36.6299 21.0239C36.5385 20.9051 36.4929 20.7406 36.4929 20.5305C36.4929 20.3751 36.5385 20.165 36.6299 19.9C36.7122 19.635 36.8264 19.3745 36.9726 19.1187C37.1188 18.8628 37.2833 18.6435 37.466 18.4608C37.6488 18.2689 37.8315 18.1729 38.0143 18.1729C38.2245 18.1729 38.3935 18.2506 38.5214 18.4059C38.6585 18.5613 38.7636 18.7532 38.8367 18.9816C38.9098 19.2009 38.96 19.4339 38.9875 19.6807C39.024 19.9274 39.0423 20.1421 39.0423 20.3249C39.1976 20.3249 39.3484 20.3249 39.4946 20.3249C39.6499 20.3157 39.7962 20.3112 39.9332 20.3112C40.4541 20.3112 40.8516 20.4254 41.1257 20.6538C41.3998 20.8823 41.5369 21.2569 41.5369 21.7778C41.5369 21.9879 41.5232 22.2072 41.4958 22.4357C41.4684 22.6641 41.4364 22.9017 41.3998 23.1484C41.3633 23.386 41.3313 23.6236 41.3039 23.8612C41.2765 24.0988 41.2628 24.3318 41.2628 24.5602C41.2628 24.8892 41.3085 25.1633 41.3998 25.3826C41.4912 25.5928 41.6054 25.7618 41.7425 25.8898C41.8796 26.0177 42.0258 26.1091 42.1811 26.1639C42.3364 26.2096 42.4781 26.2324 42.606 26.2324C42.9989 26.2324 43.369 26.1045 43.7162 25.8486C44.0635 25.5928 44.3833 25.2867 44.6757 24.9303C44.9681 24.5648 45.2285 24.181 45.457 23.7789C45.6946 23.3769 45.891 23.0251 46.0464 22.7235C46.0921 22.6413 46.156 22.5773 46.2383 22.5316C46.3205 22.486 46.4073 22.4631 46.4987 22.4631C46.6632 22.4631 46.7911 22.5179 46.8825 22.6276C46.9739 22.7281 47.0195 22.8423 47.0195 22.9703C47.0195 23.0616 47.0013 23.1439 46.9647 23.217C46.7546 23.5916 46.5078 24.0165 46.2246 24.4917C45.9504 24.9577 45.6352 25.3963 45.2788 25.8075C44.9224 26.2187 44.5204 26.566 44.0726 26.8492C43.634 27.1325 43.1497 27.2741 42.6197 27.2741C42.2908 27.2741 41.9801 27.2102 41.6877 27.0822C41.3953 26.9634 41.1394 26.7898 40.9201 26.5614C40.7099 26.3238 40.5409 26.036 40.413 25.6979C40.285 25.3506 40.2211 24.9623 40.2211 24.5328C40.2211 24.0759 40.2667 23.6236 40.3581 23.1759C40.4495 22.719 40.4952 22.2849 40.4952 21.8737C40.4952 21.7001 40.4541 21.5722 40.3718 21.4899C40.2987 21.3986 40.1297 21.3529 39.8647 21.3529C39.7368 21.3529 39.5951 21.3529 39.4398 21.3529C39.2936 21.3529 39.1337 21.3574 38.96 21.3666ZM38.0417 20.3523C38.0417 20.2883 38.0371 20.2061 38.028 20.1056C38.028 19.9959 38.0189 19.8908 38.0006 19.7903C37.9914 19.6898 37.9732 19.603 37.9458 19.5299C37.9275 19.4568 37.9046 19.4202 37.8772 19.4202C37.8498 19.4202 37.8133 19.4568 37.7676 19.5299C37.731 19.5939 37.6899 19.6761 37.6442 19.7766C37.5985 19.868 37.5574 19.9685 37.5209 20.0782C37.4843 20.1878 37.4569 20.2792 37.4386 20.3523H38.0417ZM47.6912 25.4923C47.8831 25.7573 48.1298 25.972 48.4313 26.1365C48.7329 26.2918 49.103 26.3695 49.5416 26.3695C49.9893 26.3695 50.3959 26.2644 50.7615 26.0542C51.127 25.8349 51.4605 25.5517 51.762 25.2044C52.0636 24.8572 52.3331 24.4688 52.5707 24.0394C52.8083 23.6099 53.023 23.1804 53.2149 22.7509C53.2606 22.6504 53.3246 22.5773 53.4068 22.5316C53.4891 22.4768 53.5805 22.4494 53.681 22.4494C53.8363 22.4494 53.9597 22.5042 54.051 22.6139C54.1516 22.7235 54.2018 22.8423 54.2018 22.9703C54.2018 23.0159 54.1973 23.0571 54.1881 23.0936C54.179 23.121 54.1653 23.153 54.147 23.1896C53.5165 24.5785 52.8266 25.6248 52.0773 26.3284C51.3371 27.032 50.4965 27.3929 49.5553 27.4112C48.9522 27.4112 48.4313 27.2924 47.9927 27.0548C47.5541 26.8264 47.1932 26.5294 46.9099 26.1639C46.6266 25.7892 46.4165 25.3689 46.2794 24.9029C46.1423 24.4369 46.0738 23.9708 46.0738 23.5048C46.0738 23.0388 46.1286 22.6093 46.2383 22.2164C46.3571 21.8235 46.5215 21.4808 46.7317 21.1884C46.951 20.896 47.2069 20.6675 47.4993 20.5031C47.8008 20.3386 48.1298 20.2563 48.4862 20.2563C48.6963 20.2563 48.9019 20.302 49.103 20.3934C49.3131 20.4756 49.5004 20.599 49.6649 20.7635C49.8294 20.9188 49.9619 21.1107 50.0624 21.3392C50.1629 21.5676 50.2132 21.828 50.2132 22.1204C50.2132 22.4951 50.1492 22.8469 50.0213 23.1759C49.8934 23.5048 49.7152 23.8109 49.4867 24.0942C49.2674 24.3775 49.0024 24.6379 48.6918 24.8755C48.3811 25.1131 48.0475 25.3187 47.6912 25.4923ZM47.28 24.6013C47.5632 24.4825 47.8191 24.3318 48.0475 24.149C48.2851 23.9663 48.4862 23.7652 48.6506 23.5459C48.8151 23.3266 48.943 23.0982 49.0344 22.8606C49.1258 22.6139 49.1715 22.3672 49.1715 22.1204C49.1715 21.8463 49.103 21.6407 48.9659 21.5036C48.8288 21.3574 48.6689 21.2843 48.4862 21.2843C48.2394 21.2843 48.0293 21.3529 47.8557 21.4899C47.682 21.627 47.5404 21.8052 47.4307 22.0245C47.3211 22.2438 47.2389 22.4905 47.184 22.7647C47.1383 23.0296 47.1155 23.2946 47.1155 23.5596C47.1155 23.7241 47.1292 23.8977 47.1566 24.0805C47.1932 24.2632 47.2343 24.4369 47.28 24.6013ZM54.7501 21.9285C54.6953 22.0748 54.6267 22.2392 54.5445 22.422C54.4714 22.6047 54.3846 22.7966 54.2841 22.9977C54.2018 23.153 54.115 23.2764 54.0236 23.3677C53.9414 23.45 53.8317 23.4911 53.6947 23.4911C53.5393 23.4911 53.416 23.4454 53.3246 23.354C53.2332 23.2535 53.1875 23.1393 53.1875 23.0114C53.1875 22.9657 53.1921 22.9291 53.2012 22.9017C53.2104 22.8652 53.2332 22.8103 53.2698 22.7372C53.5074 22.2804 53.681 21.8829 53.7906 21.5448C53.9094 21.1975 54.0054 20.8366 54.0785 20.4619C54.0145 20.2518 53.9688 20.0736 53.9414 19.9274C53.914 19.7812 53.9003 19.6304 53.9003 19.4751C53.9003 19.1735 53.9642 18.9314 54.0922 18.7486C54.2201 18.5567 54.3983 18.4608 54.6267 18.4608C54.8369 18.4608 55.0014 18.5521 55.1202 18.7349C55.2481 18.9177 55.3121 19.1415 55.3121 19.4065C55.3121 19.5527 55.2983 19.6989 55.2709 19.8451C55.2435 19.9913 55.207 20.1741 55.1613 20.3934C55.3715 20.9143 55.5816 21.3757 55.7918 21.7778C56.002 22.1798 56.1893 22.5499 56.3538 22.888C56.5182 23.217 56.6507 23.5277 56.7513 23.8201C56.8609 24.1125 56.9157 24.4049 56.9157 24.6973C56.9157 25.0811 56.8381 25.4466 56.6827 25.7938C56.5274 26.1411 56.2715 26.4335 55.9151 26.671C55.9608 26.6802 56.0065 26.6847 56.0522 26.6847C56.0979 26.6847 56.1436 26.6847 56.1893 26.6847C56.7101 26.6847 57.1899 26.566 57.6285 26.3284C58.0671 26.0908 58.46 25.7847 58.8072 25.41C59.1636 25.0262 59.4789 24.6059 59.753 24.149C60.0271 23.683 60.2647 23.2215 60.4657 22.7647C60.5571 22.5545 60.6851 22.4494 60.8495 22.4494C61.0049 22.4494 61.1237 22.5042 61.2059 22.6139C61.2973 22.7235 61.343 22.8423 61.343 22.9703C61.343 23.0434 61.3293 23.1119 61.3019 23.1759C61.2013 23.4226 61.0688 23.7058 60.9044 24.0257C60.749 24.3363 60.5571 24.6607 60.3287 24.9988C60.1094 25.3278 59.8535 25.6522 59.5611 25.972C59.2687 26.2918 58.9397 26.5797 58.5742 26.8355C58.2179 27.0822 57.8249 27.2787 57.3955 27.4249C56.966 27.5802 56.4954 27.6579 55.9837 27.6579C55.3715 27.6579 54.8003 27.5483 54.2704 27.329C53.7495 27.1188 53.3246 26.767 52.9956 26.2735C52.9408 26.1913 52.9134 26.1045 52.9134 26.0131C52.9134 25.8761 52.9637 25.7573 53.0642 25.6568C53.1738 25.5471 53.2972 25.4923 53.4342 25.4923C53.5805 25.4923 53.7038 25.5425 53.8043 25.643C53.8135 25.6613 53.8454 25.6933 53.9003 25.739C53.9551 25.7755 54.0191 25.8212 54.0922 25.8761C54.1744 25.9217 54.2658 25.9629 54.3663 25.9994C54.476 26.036 54.5856 26.0542 54.6953 26.0542C54.9146 26.0542 55.0973 26.0086 55.2435 25.9172C55.3989 25.8258 55.5222 25.7161 55.6136 25.5882C55.705 25.4512 55.7689 25.3095 55.8055 25.1633C55.8512 25.008 55.874 24.8755 55.874 24.7658C55.874 24.5374 55.8375 24.3089 55.7644 24.0805C55.6913 23.852 55.5953 23.6236 55.4765 23.3952C55.3669 23.1667 55.2435 22.9337 55.1065 22.6961C54.9785 22.4494 54.8597 22.1935 54.7501 21.9285ZM61.4389 25.8349C61.5851 25.5243 61.7542 25.1907 61.9461 24.8344C62.138 24.4688 62.3436 24.0988 62.5629 23.7241C62.7822 23.3403 63.0152 22.9611 63.2619 22.5865C63.5086 22.2118 63.7645 21.86 64.0295 21.5311C64.2945 21.2112 64.5595 20.9828 64.8245 20.8457C65.0986 20.6995 65.3544 20.6264 65.592 20.6264C65.8296 20.6264 66.0352 20.6767 66.2088 20.7772C66.3916 20.8686 66.5378 20.9965 66.6474 21.161C66.7662 21.3255 66.853 21.5173 66.9079 21.7367C66.9718 21.956 67.0038 22.1935 67.0038 22.4494C67.0038 22.6596 66.981 22.9428 66.9353 23.2992C66.8987 23.6464 66.8805 24.012 66.8805 24.3957C66.8805 24.615 66.8896 24.8344 66.9079 25.0537C66.9353 25.2638 66.9764 25.4557 67.0312 25.6293C67.0952 25.7938 67.1866 25.9309 67.3054 26.0405C67.4241 26.1411 67.5795 26.1913 67.7714 26.1913C67.9907 26.1913 68.21 26.1319 68.4293 26.0131C68.6486 25.8852 68.8633 25.7207 69.0735 25.5197C69.2837 25.3095 69.4847 25.0811 69.6766 24.8344C69.8685 24.5785 70.0421 24.3272 70.1975 24.0805C70.3528 23.8246 70.4899 23.5825 70.6087 23.354C70.7274 23.1165 70.8234 22.92 70.8965 22.7647C70.9879 22.5545 71.1478 22.4494 71.3762 22.4494C71.5316 22.4494 71.6549 22.5042 71.7463 22.6139C71.8377 22.7235 71.8834 22.8423 71.8834 22.9703C71.8834 23.0434 71.8697 23.1119 71.8423 23.1759C71.8057 23.249 71.7326 23.3997 71.6229 23.6282C71.5224 23.8566 71.3808 24.1216 71.198 24.4232C71.0244 24.7247 70.8188 25.04 70.5812 25.3689C70.3437 25.6979 70.0787 26.004 69.7863 26.2873C69.503 26.5614 69.1923 26.7898 68.8542 26.9726C68.5252 27.1462 68.178 27.233 67.8125 27.233C67.3922 27.233 67.0541 27.1462 66.7982 26.9726C66.5424 26.7898 66.3413 26.5614 66.1951 26.2873C66.0581 26.0131 65.9621 25.707 65.9073 25.3689C65.8616 25.0308 65.8387 24.7019 65.8387 24.382C65.8387 24.2176 65.8433 24.0439 65.8525 23.8612C65.8707 23.6693 65.889 23.482 65.9073 23.2992C65.9256 23.1165 65.9393 22.9474 65.9484 22.7921C65.9667 22.6276 65.9758 22.4905 65.9758 22.3809C65.9758 22.0976 65.9347 21.9057 65.8525 21.8052C65.7794 21.7047 65.6925 21.6544 65.592 21.6544C65.4458 21.6544 65.2768 21.7412 65.0849 21.9148C64.9021 22.0793 64.7057 22.2986 64.4955 22.5728C64.2945 22.8469 64.0889 23.1576 63.8787 23.5048C63.6777 23.8429 63.4812 24.181 63.2893 24.5191C63.0974 24.8572 62.9238 25.1816 62.7685 25.4923C62.6131 25.7938 62.4852 26.0451 62.3847 26.2461C62.1928 26.6299 61.9963 26.8858 61.7953 27.0137C61.6034 27.1508 61.4298 27.2193 61.2744 27.2193C60.9912 27.2193 60.7719 27.1097 60.6165 26.8903C60.4703 26.6619 60.3972 26.3878 60.3972 26.0679V25.2044C60.3972 23.4774 60.3972 21.8326 60.3972 20.27C60.4064 18.6984 60.4292 17.2409 60.4657 15.8976C60.5114 14.5452 60.58 13.3254 60.6713 12.238C60.7719 11.1414 60.9181 10.2094 61.11 9.44181C61.3019 8.6651 61.544 8.06658 61.8364 7.64624C62.138 7.2259 62.5126 7.01573 62.9604 7.01573C63.3441 7.01573 63.6685 7.12082 63.9335 7.33099C64.1985 7.54116 64.4133 7.82899 64.5777 8.1945C64.7422 8.55088 64.861 8.97121 64.9341 9.45551C65.0072 9.93068 65.0438 10.4333 65.0438 10.9632C65.0438 12.0415 64.9432 13.1015 64.7422 14.1432C64.5503 15.1757 64.2899 16.1855 63.9609 17.1723C63.632 18.1592 63.2482 19.1233 62.8096 20.0644C62.371 20.9965 61.9095 21.9057 61.4252 22.7921C61.4252 22.9565 61.4252 23.153 61.4252 23.3814C61.4252 23.6099 61.4252 23.8383 61.4252 24.0668C61.4252 24.2952 61.4252 24.51 61.4252 24.711C61.4252 24.912 61.4252 25.0719 61.4252 25.1907L61.4389 25.8349ZM61.4389 20.7772C61.8227 19.9365 62.1699 19.1187 62.4806 18.3237C62.8004 17.5196 63.07 16.72 63.2893 15.925C63.5178 15.1301 63.6959 14.3259 63.8239 13.5127C63.9518 12.6903 64.0158 11.8359 64.0158 10.9495C64.0158 10.8033 64.0066 10.5703 63.9884 10.2505C63.9792 9.93068 63.9381 9.60629 63.865 9.27733C63.801 8.94837 63.6959 8.66053 63.5497 8.41381C63.4127 8.16709 63.2162 8.04373 62.9604 8.04373C62.7593 8.04373 62.5857 8.1808 62.4395 8.45493C62.2933 8.71993 62.1654 9.08544 62.0557 9.55146C61.9461 10.0083 61.8547 10.5429 61.7816 11.1551C61.7085 11.7674 61.6491 12.4161 61.6034 13.1015C61.5577 13.7868 61.5212 14.4904 61.4937 15.2123C61.4755 15.9342 61.4618 16.6378 61.4526 17.3231C61.4435 17.9993 61.4389 18.6344 61.4389 19.2283C61.4389 19.8223 61.4389 20.3386 61.4389 20.7772ZM76.0091 27.1919C76.3289 26.8721 76.6533 26.5477 76.9822 26.2187C77.3112 25.8806 77.631 25.5288 77.9417 25.1633C78.2524 24.7978 78.5402 24.4186 78.8052 24.0257C79.0794 23.6236 79.3215 23.1987 79.5317 22.7509C79.5774 22.6504 79.6413 22.5773 79.7236 22.5316C79.8058 22.4768 79.8972 22.4494 79.9977 22.4494C80.153 22.4494 80.2764 22.5042 80.3678 22.6139C80.4683 22.7235 80.5185 22.8469 80.5185 22.984C80.5185 23.0571 80.5048 23.1256 80.4774 23.1896C80.1942 23.7835 79.8698 24.3272 79.5043 24.8206C79.1387 25.3141 78.755 25.7847 78.3529 26.2324C77.9508 26.671 77.5442 27.0959 77.133 27.5071C76.7218 27.9275 76.3289 28.3478 75.9542 28.7682C75.9177 29.3987 75.9177 30.0292 75.9542 30.6597C75.9908 31.2993 76.0091 31.9755 76.0091 32.6883C76.0091 33.2731 75.9908 33.8579 75.9542 34.4427C75.9177 35.0275 75.8583 35.5849 75.7761 36.1149C75.6938 36.654 75.5796 37.1566 75.4334 37.6226C75.2963 38.0887 75.1181 38.4907 74.8988 38.8288C74.6795 39.1761 74.4237 39.4456 74.1313 39.6375C73.8389 39.8385 73.4962 39.9391 73.1033 39.9391C72.4545 39.9391 71.9565 39.7152 71.6092 39.2674C71.262 38.8197 71.0884 38.1937 71.0884 37.3896C71.0884 36.951 71.1341 36.4804 71.2255 35.9778C71.326 35.4753 71.463 34.9544 71.6367 34.4153C71.8103 33.8853 72.0159 33.3462 72.2535 32.7979C72.5002 32.2496 72.7652 31.7151 73.0484 31.1942C73.3317 30.6734 73.6333 30.1754 73.9531 29.7002C74.2729 29.2342 74.5973 28.8093 74.9262 28.4255C74.9445 27.9869 74.9628 27.53 74.9811 27.0548C75.0085 26.5888 75.0359 26.1548 75.0633 25.7527C74.8257 26.173 74.5288 26.5111 74.1724 26.767C73.8251 27.0228 73.4414 27.1508 73.021 27.1508C72.3266 27.1508 71.7829 26.9178 71.3899 26.4517C70.997 25.9857 70.8005 25.3461 70.8005 24.5328C70.8005 23.9389 70.8554 23.3997 70.965 22.9154C71.0838 22.422 71.2072 22.0016 71.3351 21.6544C71.4722 21.298 71.5955 21.0285 71.7052 20.8457C71.8148 20.6538 71.8697 20.5625 71.8697 20.5716C71.9702 20.4162 72.1118 20.3386 72.2946 20.3386C72.4499 20.3386 72.5733 20.3934 72.6647 20.5031C72.7652 20.6036 72.8154 20.7224 72.8154 20.8594C72.8154 20.9599 72.788 21.0513 72.7332 21.1336C72.7423 21.1244 72.6966 21.2021 72.5961 21.3666C72.5047 21.5219 72.3997 21.7504 72.2809 22.0519C72.1712 22.3535 72.0661 22.7144 71.9656 23.1347C71.8742 23.5551 71.8285 24.0165 71.8285 24.5191C71.8285 25.0217 71.9199 25.4146 72.1027 25.6979C72.2854 25.9811 72.5824 26.1228 72.9936 26.1228C73.5145 26.1228 73.9851 25.739 74.4054 24.9714C74.8257 24.1947 75.1821 23.0708 75.4745 21.5996C75.4928 21.4808 75.5476 21.3849 75.639 21.3117C75.7304 21.2295 75.84 21.1884 75.9679 21.1884C76.1142 21.1884 76.2375 21.2386 76.338 21.3392C76.4385 21.4397 76.4888 21.563 76.4888 21.7092C76.4888 21.7367 76.4705 21.9011 76.434 22.2027C76.3974 22.4951 76.3517 22.888 76.2969 23.3814C76.2512 23.8749 76.201 24.4506 76.1461 25.1085C76.0913 25.7573 76.0456 26.4517 76.0091 27.1919ZM74.9125 30.0977C74.5013 30.6917 74.1221 31.3176 73.7749 31.9755C73.4368 32.6334 73.1444 33.2868 72.8977 33.9356C72.6509 34.5843 72.4591 35.2057 72.322 35.7997C72.1849 36.3936 72.1164 36.9236 72.1164 37.3896C72.1164 37.8648 72.1941 38.2349 72.3494 38.4999C72.5047 38.774 72.7515 38.9111 73.0896 38.9111C73.3911 38.9111 73.6561 38.7603 73.8845 38.4587C74.1221 38.1663 74.3186 37.746 74.4739 37.1977C74.6384 36.6495 74.7618 35.9824 74.844 35.1966C74.9262 34.4199 74.9674 33.5472 74.9674 32.5786C74.9674 32.1857 74.9582 31.7882 74.94 31.3861C74.9308 30.9841 74.9217 30.5546 74.9125 30.0977Z" fill="#631DC0"/>
</svg>
