<svg width="35" height="35" viewBox="0 0 35 35" fill="none" xmlns="http://www.w3.org/2000/svg">
<path fill-rule="evenodd" clip-rule="evenodd" d="M5.43313 0C2.4325 0 0 2.43249 0 5.43313V28.7956C0 31.7962 2.4325 34.2287 5.43313 34.2287H28.6145C31.6151 34.2287 34.0476 31.7962 34.0476 28.7956V5.43313C34.0476 2.4325 31.6151 0 28.6145 0H5.43313ZM9.93628 8.61789H18.4418C23.6912 8.61789 26.9755 11.3408 26.9755 15.748C26.9755 20.1271 23.6912 22.85 18.4418 22.85H14.4838V28.2677H9.93628V8.61789ZM14.4838 19.1446H18.1892C20.9683 19.1446 22.3718 17.8814 22.3718 15.748C22.3718 13.5865 20.9683 12.3233 18.1892 12.3233H14.4838V19.1446Z" fill="#631DC0"/>
</svg>
